<?xml version="1.0" encoding="UTF-8"?>
<svg viewBox="0 0 855 691" width="855" height="691" xmlns="http://www.w3.org/2000/svg"><g fill="none" fill-rule="evenodd"><path d="M749.293 3.176c47.464-5.866 83.685-2.668 97.498 14.891 6.128 7.79 7.778 18.411 4.057 32.285-3.539 13.194-11.923 29.31-25.959 48.728-47.327 65.479-82.656 108.455-108.676 140.107-61.174 74.415-70.985 86.371-64.261 180.511 1.202 16.819-8.284 35.559-25.691 55.062-18.904 21.179-47.158 43.242-81.378 64.699-72.7 45.585-172.318 88.422-266.504 114.19-78.395 21.449-153.027 31.08-205.219 20.593-23.073-4.637-41.753-13.204-54.395-26.452C7.018 635.479.5 619.129.5 598.168.5 387.157 154.693 278.47 265.852 200.07c18.791-13.253 36.356-25.642 51.744-37.512 64.439-49.705 294.93-142.477 431.697-159.382Z" stroke="#2CD090" opacity=".297" transform="matrix(.97667 0 0 .9876 6.679 9.948)"/><path d="M617.128 410.456c-8.275-117.144 12.496-88.422 149.419-279.98C903.47-61.08 419.464 113.549 327.39 185.365 235.316 257.181 53.1 350.707 53.1 566.498c0 185.177 572.301-38.896 564.027-156.04Z" fill="#F4F5F9"/><path d="M718.372 28.991c44.16-5.458 77.866-2.492 90.718 13.847 5.699 7.243 7.23 17.12 3.77 30.02-3.293 12.278-11.095 27.274-24.156 45.343-44.051 60.946-76.934 100.947-101.152 130.407-56.948 69.275-66.081 80.405-59.821 168.041 1.118 15.647-7.71 33.081-23.905 51.225-17.593 19.711-43.889 40.245-75.737 60.215-67.665 42.427-160.384 82.298-248.048 106.282-72.962 19.962-142.422 28.927-190.997 19.166-21.468-4.314-38.849-12.284-50.612-24.611-10.928-11.452-16.991-26.663-16.991-46.163 0-196.391 143.514-297.545 246.97-370.513 17.491-12.336 33.84-23.868 48.164-34.916C376.55 131.071 591.078 44.725 718.372 28.991Z" stroke="#979797" opacity=".1" transform="matrix(.97667 0 0 .9876 6.679 9.948)"/></g></svg>