<svg xmlns="http://www.w3.org/2000/svg" viewBox="0 0 151 50" width="151" height="50"><defs><linearGradient x1="0%" y1="100%" x2="100%" y2="0%" id="a"><stop offset="0"/><stop stop-color="#242861" offset=".287"/><stop stop-color="#333A8A" offset=".526"/><stop stop-color="#444DB8" offset=".754"/><stop stop-color="#4D57D0" offset="1"/></linearGradient><linearGradient x1="20.974%" y1="41.575%" x2="14.38%" y2="76.532%" id="b"><stop stop-color="#6974FF" offset="0"/><stop stop-color="#6873FD" offset=".022"/><stop offset="1"/><stop stop-color="#D4D7ED" offset="1"/><stop offset="1"/></linearGradient><linearGradient x1="47.781%" y1="9.647%" x2="42.732%" y2="58.032%" id="d"><stop stop-color="#7681FF" offset="0"/><stop stop-color="#7580FD" offset=".53"/><stop offset="1"/></linearGradient><linearGradient x1="14.028%" y1="20.332%" x2="16.455%" y2="47.882%" id="e"><stop stop-color="#7681FF" offset="0"/><stop offset="1"/></linearGradient></defs><g fill="none" fill-rule="evenodd"><g transform="translate(.774 .046)"><mask id="c" fill="#fff"><circle cx="24.868" cy="24.585" r="24.75"/></mask><circle cx="24.75" cy="24.75" r="24.75" fill="url(#a)"/><path d="M119.841 105.936c59.595 0 107.908-48.313 107.908-107.909 0-59.596-48.313-107.909-107.909-107.909-59.596 0-107.909 48.313-107.909 107.909 0 13.327 2.417 26.09 6.835 37.875 15.338 40.913 54.805 70.034 101.074 70.034h.001Z" stroke="url(#b)" stroke-width="4.2" opacity=".896" mask="url(#c)"/><path d="M-14.516 86.307a48.8 48.8 0 0 0 29.6-9.944c11.796-8.95 19.414-23.12 19.414-39.07 0-27.069-21.945-49.013-49.014-49.013-27.07 0-49.013 21.944-49.013 49.014 0 27.069 21.944 49.013 49.013 49.013Z" stroke="url(#d)" stroke-width="11.2" opacity=".503" mask="url(#c)"/><path d="M81.342 123.702c34.206 0 61.934-27.728 61.934-61.933 0-18.649-8.242-35.373-21.282-46.727C111.116 5.57 96.899-.165 81.341-.165c-34.204 0-61.932 27.729-61.932 61.934s27.728 61.933 61.933 61.933Z" stroke="url(#e)" stroke-width="3.2" mask="url(#c)"/></g><path d="M58.606 32.106h3.574v-6.96h8.13V22.09h-8.13v-3.63h8.307v-3.054H58.606v16.7Zm22.503 0h3.197V20.013h-3.197V28.2c-.554.7-1.536 1.377-2.769 1.377-1.36 0-2.24-.551-2.24-2.228v-7.336h-3.197V28.6c0 2.354 1.259 3.806 3.927 3.806 1.988 0 3.448-.901 4.279-1.828v1.528Zm10.446.3c1.334 0 2.19-.35 2.668-.776l-.68-2.404c-.176.176-.629.35-1.107.35-.705 0-1.108-.575-1.108-1.326v-5.458h2.467v-2.78h-2.467v-3.303h-3.222v3.305h-2.013v2.779h2.013v6.31c0 2.15 1.21 3.303 3.45 3.303h-.001Zm4.43-.3h3.197v-7.987c.528-.776 1.938-1.352 2.995-1.352.352 0 .654.025.881.075v-3.106c-1.51 0-3.02.852-3.876 1.928v-1.651h-3.197v12.093Zm19.734 0h3.398l3.7-12.093h-3.321l-2.266 8.137-2.668-8.137h-2.844l-2.668 8.137-2.266-8.137h-3.322l3.7 12.093h3.423l2.568-8.238 2.567 8.238h-.001Zm8.684 0h3.197v-7.987c.528-.776 1.938-1.352 2.995-1.352.352 0 .654.025.881.075v-3.106c-1.51 0-3.02.852-3.876 1.928v-1.651h-3.197v12.093Zm16.94 0h4.002l-4.958-6.61 4.807-5.483h-3.926l-4.607 5.383v-9.99h-3.197v16.7h3.197v-3.105l1.46-1.552 3.222 4.657Zm5.185-1.753c0 1.102.932 2.028 2.04 2.028 1.107 0 2.038-.926 2.038-2.028 0-1.102-.931-2.028-2.039-2.028-1.107 0-2.039.926-2.039 2.028Z" fill="#F7F7F7"/></g></svg>
