<?xml version="1.0" encoding="UTF-8"?>
<svg width="342px" height="94px" viewBox="0 0 342 94" version="1.1" xmlns="http://www.w3.org/2000/svg" xmlns:xlink="http://www.w3.org/1999/xlink">
    <title>Group 21</title>
    <g id="Page-1" stroke="none" stroke-width="1" fill="none" fill-rule="evenodd">
        <g id="Invite-Secured-133T" transform="translate(-427.000000, -283.000000)">
            <g id="Oval" transform="translate(386.000000, 252.246108)">
                <g id="Group-21" transform="translate(41.500000, 31.246108)">
                    <path d="M15.7413983,27.7349506 L16.0004571,27.7419208 L130.868725,34.1056899 C132.109463,34.1744275 133.204879,34.7395662 133.972926,35.5977051 C134.740973,36.4558439 135.181651,37.6069828 135.112914,38.8477209 C135.084166,39.3666275 134.965748,39.8766326 134.762912,40.3551177 L134.762912,40.3551177 L119.228125,77.0012836 C118.899645,77.7761593 118.368669,78.4269806 117.710011,78.9000172 C117.051354,79.3730538 116.265014,79.6683058 115.425807,79.732043 L115.425807,79.732043 L6.45755521,88.0081128 C5.21848306,88.1022195 4.05856947,87.685184 3.18489723,86.9348537 C2.31122498,86.1845234 1.72379409,85.1008984 1.62968735,83.8618262 C1.59993903,83.47014 1.62160446,83.0762447 1.69413121,82.6901839 L1.69413121,82.6901839 L11.3289028,31.4041793 C11.5374626,30.2940134 12.1414227,29.3472069 12.9752071,28.6935627 C13.8089915,28.0399186 14.8726002,27.6794369 16.0004571,27.7419208 Z" id="Rectangle-Copy-2" stroke="#4D57D0" transform="translate(69.000000, 58.000000) scale(-1, -1) translate(-69.000000, -58.000000) "></path>
                    <path d="M135.610006,31.1463504 L291.721594,36.7052199 C294.481268,36.8034873 296.638765,39.1203071 296.540498,41.8799819 C296.511611,42.6912342 296.285636,43.4832543 295.882097,44.187613 L273.85646,82.6323607 C273.011006,84.1080615 271.473407,85.0528151 269.774923,85.1401969 L123.63951,92.6584175 C120.881734,92.8002967 118.531098,90.6796929 118.389219,87.9219163 C118.365105,87.4531908 118.407107,86.9834045 118.513989,86.526391 L130.563451,35.0045532 C131.107605,32.6778266 133.222009,31.0613178 135.610006,31.1463504 Z" id="Rectangle" fill="#2CD090"></path>
                    <text id="Invite-Secured." font-family="Graphik-Medium, Graphik" font-size="30" font-weight="400" letter-spacing="1">
                        <tspan x="35.5" y="71.7538918" fill="#3A3A3A">Invite</tspan>
                        <tspan x="121.96" y="71.7538918" fill="#3A3A3A"> </tspan>
                        <tspan x="130.1" y="71.7538918" fill="#FFFFFF">Secured.</tspan>
                    </text>
                    <g id="Group" transform="translate(288.500000, -0.000000)" fill="#2CD090" fill-rule="nonzero">
                        <g>
                            <path d="M0.233747573,26.1201553 C0.233747573,11.9201165 11.7863301,0.367533981 25.9863689,0.367533981 C40.1859029,0.367533981 51.7379806,11.9201165 51.7379806,26.1201553 C51.7379806,40.3196893 40.1859029,51.8722719 25.9863689,51.8722719 C11.7863301,51.8722719 0.233747573,40.3196893 0.233747573,26.1201553 Z M25.9863689,3.90201942 C13.7350679,3.90201942 3.76772815,13.8693592 3.76772815,26.1201553 C3.76772815,38.3714563 13.7350679,48.3382913 25.9863689,48.3382913 C38.2371651,48.3382913 48.204,38.3714563 48.204,26.1201553 C48.204,13.8693592 38.2371651,3.90201942 25.9863689,3.90201942 L25.9863689,3.90201942 Z" id="Shape"></path>
                            <path d="M21.2422524,34.1246213 L14.7210485,27.6034175 C14.0309126,26.9137864 14.0309126,25.7945243 14.7210485,25.1048932 C15.4111845,24.4142524 16.5294369,24.4142524 17.2195728,25.1048932 L22.491767,30.3760777 L34.7521553,18.1156893 C35.4412815,17.4255534 36.5605437,17.4255534 37.2506796,18.1156893 C37.9408155,18.8053204 37.9408155,19.9245825 37.2506796,20.6142136 L23.7407767,34.1246213 C23.4095922,34.4558058 22.9602719,34.6420971 22.491767,34.6420971 C22.0227573,34.6420971 21.5734369,34.4558058 21.2422524,34.1246213 Z" id="Path"></path>
                        </g>
                    </g>
                </g>
            </g>
        </g>
    </g>
</svg>