<svg width="33" height="33" viewBox="0 0 33 33" xmlns="http://www.w3.org/2000/svg" xmlns:xlink="http://www.w3.org/1999/xlink"><defs><linearGradient x1="0%" y1="100%" x2="100%" y2="0%" id="b"><stop offset="0%"/><stop stop-color="#242861" offset="28.715%"/><stop stop-color="#333A8A" offset="52.628%"/><stop stop-color="#444DB8" offset="75.404%"/><stop stop-color="#4D57D0" offset="100%"/></linearGradient><linearGradient x1="20.974%" y1="41.575%" x2="14.38%" y2="76.532%" id="c"><stop stop-color="#6974FF" offset="0%"/><stop stop-color="#6873FD" offset="2.163%"/><stop offset="100%"/><stop stop-color="#D4D7ED" offset="100%"/><stop offset="100%"/></linearGradient><linearGradient x1="47.781%" y1="9.647%" x2="42.732%" y2="58.032%" id="e"><stop stop-color="#7681FF" offset="0%"/><stop stop-color="#7580FD" offset="53.051%"/><stop offset="100%"/></linearGradient><linearGradient x1="14.028%" y1="20.332%" x2="16.455%" y2="47.882%" id="f"><stop stop-color="#7681FF" offset="0%"/><stop offset="100%"/></linearGradient><circle id="a" cx="16.151" cy="16.151" r="16.151"/></defs><g fill="none" fill-rule="evenodd"><g transform="translate(.622 .35)"><mask id="d" fill="#fff"><use xlink:href="#a"/></mask><use fill="url(#b)" xlink:href="#a"/><path d="M77.771 69.129c38.89 0 70.416-31.527 70.416-70.417s-31.526-70.416-70.416-70.416S7.355-40.177 7.355-1.288a70.264 70.264 0 0 0 4.46 24.716c10.008 26.698 35.763 45.7 65.956 45.7Z" stroke="url(#c)" stroke-width="2.2" opacity=".896" mask="url(#d)"/></g><path d="M-9.241 56.32a31.848 31.848 0 0 0 19.316-6.489c7.697-5.84 12.668-15.087 12.668-25.495 0-17.664-14.32-31.984-31.984-31.984-17.665 0-31.984 14.32-31.984 31.984S-26.905 56.32-9.241 56.32Z" stroke="url(#e)" stroke-width="6.2" opacity=".503" mask="url(#d)" transform="translate(.622 .35)"/><path d="M52.294 80.83c22.32 0 40.415-18.094 40.415-40.415 0-12.17-5.378-23.082-13.888-30.492A40.26 40.26 0 0 0 52.294 0c-22.32 0-40.415 18.095-40.415 40.415S29.973 80.83 52.294 80.83Z" stroke="url(#f)" stroke-width="2.2" mask="url(#d)" transform="translate(.622 .35)"/></g></svg>