<svg width="131" height="33" viewBox="0 0 131 33" xmlns="http://www.w3.org/2000/svg" xmlns:xlink="http://www.w3.org/1999/xlink"><defs><linearGradient x1="0%" y1="100%" x2="100%" y2="0%" id="b"><stop offset="0%"/><stop stop-color="#242861" offset="28.715%"/><stop stop-color="#333A8A" offset="52.628%"/><stop stop-color="#444DB8" offset="75.404%"/><stop stop-color="#4D57D0" offset="100%"/></linearGradient><linearGradient x1="20.974%" y1="41.575%" x2="14.38%" y2="76.532%" id="c"><stop stop-color="#6974FF" offset="0%"/><stop stop-color="#6873FD" offset="2.163%"/><stop offset="100%"/><stop stop-color="#D4D7ED" offset="100%"/><stop offset="100%"/></linearGradient><linearGradient x1="47.781%" y1="9.647%" x2="42.732%" y2="58.032%" id="e"><stop stop-color="#7681FF" offset="0%"/><stop stop-color="#7580FD" offset="53.051%"/><stop offset="100%"/></linearGradient><linearGradient x1="14.028%" y1="20.332%" x2="16.455%" y2="47.882%" id="f"><stop stop-color="#7681FF" offset="0%"/><stop offset="100%"/></linearGradient><circle id="a" cx="16.151" cy="16.151" r="16.151"/></defs><g fill="none" fill-rule="evenodd"><path d="M124.147 28.953v-4c.592.768 1.472 1.248 2.656 1.248 1.792 0 3.248-1.232 3.248-2.928 0-1.824-1.44-2.672-2.464-2.768 1.088-.192 2.224-1.024 2.224-2.448 0-1.792-1.376-2.88-3.52-2.88-1.824 0-3.824 1.04-3.824 3.616v10.16h1.68Zm0-5.264v-4.896c0-1.376.944-2.112 2.144-2.112.992 0 1.776.592 1.776 1.584 0 1.024-.8 1.568-1.92 1.568h-.56v1.488h.608c1.216 0 2.128.56 2.128 1.664 0 1.04-.736 1.728-2.064 1.728-.912 0-1.696-.448-2.112-1.024Z" fill="#EA8109" fill-opacity=".83" fill-rule="nonzero"/><path d="M38.056 24.501h3.124v-6.116h7.106v-2.684H41.18v-3.19h7.26V9.827H38.056zm19.668 0h2.794V13.875h-2.794v7.194c-.484.616-1.342 1.21-2.42 1.21-1.188 0-1.958-.484-1.958-1.958v-6.446h-2.794v7.546c0 2.068 1.1 3.344 3.432 3.344 1.738 0 3.014-.792 3.74-1.606v1.342Zm9.13.264c1.166 0 1.914-.308 2.332-.682l-.594-2.112c-.154.154-.55.308-.968.308-.616 0-.968-.506-.968-1.166v-4.796h2.156v-2.442h-2.156v-2.904H63.84v2.904h-1.76v2.442h1.76v5.544c0 1.892 1.056 2.904 3.014 2.904Zm3.872-.264h2.794v-7.018c.462-.682 1.694-1.188 2.618-1.188.308 0 .572.022.77.066v-2.728c-1.32 0-2.64.748-3.388 1.694v-1.452h-2.794v10.626Zm17.248 0h2.97l3.234-10.626h-2.904l-1.98 7.15-2.332-7.15h-2.486l-2.332 7.15-1.98-7.15H77.26l3.234 10.626h2.992l2.244-7.238zm7.59 0h2.794v-7.018c.462-.682 1.694-1.188 2.618-1.188.308 0 .572.022.77.066v-2.728c-1.32 0-2.64.748-3.388 1.694v-1.452h-2.794v10.626Zm14.806 0h3.498l-4.334-5.808 4.202-4.818h-3.432l-4.026 4.73V9.827h-2.794v14.674h2.794v-2.728l1.276-1.364zm4.532-1.54c0 .968.814 1.782 1.782 1.782.968 0 1.782-.814 1.782-1.782 0-.968-.814-1.782-1.782-1.782-.968 0-1.782.814-1.782 1.782Z" fill="#4D57D0" fill-rule="nonzero"/><g transform="translate(.622 .35)"><mask id="d" fill="#fff"><use xlink:href="#a"/></mask><use fill="url(#b)" xlink:href="#a"/><path d="M77.771 69.129c38.89 0 70.416-31.527 70.416-70.417s-31.526-70.416-70.416-70.416S7.355-40.177 7.355-1.288a70.264 70.264 0 0 0 4.46 24.716c10.008 26.698 35.763 45.7 65.956 45.7Z" stroke="url(#c)" stroke-width="2.2" opacity=".896" mask="url(#d)"/></g><path d="M-9.241 56.32a31.848 31.848 0 0 0 19.316-6.489c7.697-5.84 12.668-15.087 12.668-25.495 0-17.664-14.32-31.984-31.984-31.984-17.665 0-31.984 14.32-31.984 31.984S-26.905 56.32-9.241 56.32Z" stroke="url(#e)" stroke-width="6.2" opacity=".503" transform="translate(.622 .35)" mask="url(#d)"/><path d="M52.294-1.1c-22.928 0-41.515 18.587-41.515 41.515S29.366 81.93 52.294 81.93s41.515-18.587 41.515-41.515c0-12.168-5.266-23.485-14.266-31.321A41.352 41.352 0 0 0 52.293-1.1Zm0 2.2a39.15 39.15 0 0 1 25.805 9.653c8.524 7.422 13.51 18.137 13.51 29.662 0 21.713-17.602 39.315-39.315 39.315-21.713 0-39.315-17.602-39.315-39.315C12.979 18.702 30.58 1.1 52.294 1.1Z" fill="url(#f)" fill-rule="nonzero" transform="translate(.622 .35)" mask="url(#d)"/></g></svg>