<?xml version="1.0" encoding="UTF-8"?>
<svg width="1099px" height="879px" viewBox="0 0 1099 879" version="1.1" xmlns="http://www.w3.org/2000/svg" xmlns:xlink="http://www.w3.org/1999/xlink">
    <title>Group 20</title>
    <g id="Page-1" stroke="none" stroke-width="1" fill="none" fill-rule="evenodd">
        <g id="Invite-Secured-133T" transform="translate(-380.000000, -151.000000)">
            <g id="Oval" transform="translate(386.000000, 252.246108)">
                <g id="Group-20" transform="translate(-6.000000, -101.000000)">
                    <path d="M150.876608,619.5 C291.993764,619.5 538.863428,365.933811 587.743657,231.513181 C636.623886,97.0925501 453.323027,26.8272206 284.191249,66.5424069 C115.059472,106.257593 43.9511069,182.632951 16.4559779,323.16361 C-11.039151,463.694269 9.75945231,619.5 150.876608,619.5 Z" id="Oval" fill="#D8D8D8" opacity="0.3023391"></path>
                    <path d="M646.990345,826.5 C769.341922,826.5 983.383173,606.652719 1025.76337,490.107172 C1068.14357,373.561626 909.217825,312.64009 762.576975,347.074002 C615.936126,381.507913 554.283661,447.726974 530.444799,569.570045 C506.605937,691.413117 524.638769,826.5 646.990345,826.5 Z" id="Oval-Copy-8" fill="#D8D8D8" opacity="0.3023391"></path>
                    <path d="M303.461141,12.5276826 C400.132225,-10.1724283 501.059395,0.106398884 567.441476,36.1828819 C598.720098,53.1817864 622.324648,75.9084854 634.155278,103.624599 C644.993981,129.016881 645.939443,158.590085 633.87824,191.758394 C605.171933,270.700738 513.788051,387.34352 411.565595,478.128498 C324.167916,555.747416 228.840537,614.5 157.977153,614.5 C125.123992,614.5 98.2684187,606.736494 76.6455714,593.023196 C53.0429375,578.054309 35.6793169,555.999881 23.5437395,529.246449 C-5.16047014,465.966715 -4.63366245,376.428563 11.8921616,291.96324 C27.1201909,214.131091 54.6241509,154.365403 102.225665,108.739894 C148.216573,64.6581343 212.957317,33.7796099 303.461141,12.5276826 Z" id="Oval-Copy" stroke="#2CD090" opacity="0.249720982"></path>
                    <path d="M758.961141,276.273791 C855.632225,253.57368 956.559395,263.852507 1022.94148,299.92899 C1054.2201,316.927895 1077.82465,339.654594 1089.65528,367.370707 C1100.49398,392.762989 1101.43944,422.336193 1089.37824,455.504503 C1060.67193,534.446847 969.288051,651.089628 867.065595,741.874606 C779.667916,819.493524 684.340537,878.246108 613.477153,878.246108 C580.623992,878.246108 553.768419,870.482603 532.145571,856.769304 C508.542938,841.800417 491.179317,819.74599 479.04374,792.992558 C450.33953,729.712823 450.866338,640.174672 467.392162,555.709349 C482.620191,477.877199 510.124151,418.111511 557.725665,372.486003 C603.716573,328.404243 668.457317,297.525718 758.961141,276.273791 Z" id="Oval-Copy-6" stroke="#2CD090" opacity="0.249720982"></path>
                    <path d="M745.508142,329.687913 C829.429514,309.981664 917.046328,318.902641 974.673836,350.221301 C1001.81834,364.97345 1022.3047,384.695216 1032.57182,408.748442 C1041.97711,430.782596 1042.7959,456.44465 1032.32995,485.226014 C1007.407,553.764134 928.065395,655.032656 839.315665,733.852346 C763.443971,801.234899 680.689503,852.246108 619.170406,852.246108 C590.658697,852.246108 567.351642,845.509407 548.586059,833.608198 C528.102706,820.617571 513.03452,801.477316 502.502829,778.259724 C477.58393,723.324878 478.044112,645.594309 492.390505,572.268298 C505.609885,504.702579 529.484471,452.819228 570.807365,413.211705 C610.733865,374.942611 666.938642,348.137446 745.508142,329.687913 Z" id="Oval-Copy-7" stroke="#D8D8D8" opacity="0.5"></path>
                </g>
            </g>
        </g>
    </g>
</svg>