<svg width="133" height="117" viewBox="0 0 133 117" xmlns="http://www.w3.org/2000/svg"><defs><linearGradient x1="50%" y1="61.934%" x2="50%" y2="0%" id="a"><stop stop-color="#2A2A2A" offset="0%"/><stop stop-color="#3641BA" offset="100%"/></linearGradient><linearGradient x1="50%" y1="17.647%" x2="50%" y2="0%" id="b"><stop stop-color="#2A2A2A" offset="0%"/><stop stop-color="#979797" offset="100%"/></linearGradient><linearGradient x1="50%" y1="14.216%" x2="50%" y2="0%" id="c"><stop stop-color="#2A2A2A" offset="0%"/><stop stop-color="#979797" offset="100%"/></linearGradient><linearGradient x1="19.807%" y1="50%" x2="50%" y2="0%" id="d"><stop stop-color="#2A2A2A" offset="0%"/><stop stop-color="#3641BA" offset="100%"/></linearGradient><linearGradient x1="51.481%" y1="26.244%" x2="50%" y2="0%" id="e"><stop stop-color="#2A2A2A" offset="0%"/><stop stop-color="#979797" offset="100%"/></linearGradient><linearGradient x1="74.374%" y1="37.72%" x2="50%" y2="0%" id="f"><stop stop-color="#2A2A2A" offset="0%"/><stop stop-color="#3641BA" offset="100%"/></linearGradient><linearGradient x1="60.934%" y1="30.812%" x2="50%" y2="0%" id="g"><stop stop-color="#2A2A2A" offset="0%"/><stop stop-color="#979797" offset="100%"/></linearGradient></defs><g fill="none" fill-rule="evenodd"><path d="m69.577 3.175 29.703 17.15a11 11 0 0 1 5.5 9.526v34.298a11 11 0 0 1-5.5 9.526l-29.703 17.15a11 11 0 0 1-11 0l-29.703-17.15a11 11 0 0 1-5.5-9.526V29.851a11 11 0 0 1 5.5-9.526l29.703-17.15a11 11 0 0 1 11 0Z" fill="url(#a)" transform="translate(.841 .316)"/><path d="M64.077 2.202a10.5 10.5 0 0 1 5.25 1.406l29.703 17.15a10.5 10.5 0 0 1 5.25 9.093v34.298a10.493 10.493 0 0 1-5.25 9.093l-29.703 17.15a10.493 10.493 0 0 1-10.5 0l-29.703-17.15a10.493 10.493 0 0 1-5.25-9.093V29.851a10.493 10.493 0 0 1 5.25-9.093l29.703-17.15a10.493 10.493 0 0 1 5.25-1.406Z" stroke="url(#b)" transform="translate(.841 .316)"/><path d="m85.054 12.111 29.703 17.15a11 11 0 0 1 5.5 9.526v34.298a11 11 0 0 1-5.5 9.526l-29.703 17.15a11 11 0 0 1-11 0L44.351 82.61a11 11 0 0 1-5.5-9.526V38.787a11 11 0 0 1 5.5-9.527l29.703-17.149a11 11 0 0 1 11 0Z" fill="url(#a)" transform="translate(.841 .316)"/><path d="M79.554 11.138c1.813 0 3.626.468 5.25 1.406l29.703 17.15a10.5 10.5 0 0 1 5.25 9.093v34.298a10.493 10.493 0 0 1-5.25 9.093l-29.703 17.15a10.493 10.493 0 0 1-10.5 0l-29.703-17.15a10.493 10.493 0 0 1-5.25-9.093V38.787a10.493 10.493 0 0 1 5.25-9.094l29.703-17.149a10.493 10.493 0 0 1 5.25-1.406Z" stroke="url(#c)" transform="translate(.841 .316)"/><path d="m52.5 18.827 29.703 17.149a11 11 0 0 1 5.5 9.526V79.8a11 11 0 0 1-5.5 9.527L52.5 106.476a11 11 0 0 1-11 0l-29.703-17.15a11 11 0 0 1-5.5-9.526V45.502a11 11 0 0 1 5.5-9.526L41.5 18.826a11 11 0 0 1 11 0Z" fill="url(#d)" transform="translate(.841 .316)"/><path d="M47 16.892a10.5 10.5 0 0 1 5.25 1.407l29.703 17.15a10.5 10.5 0 0 1 5.25 9.093V78.84a10.493 10.493 0 0 1-5.25 9.093l-29.703 17.15a10.493 10.493 0 0 1-10.5 0l-29.703-17.15a10.493 10.493 0 0 1-5.25-9.093V44.542a10.493 10.493 0 0 1 5.25-9.094L41.75 18.3A10.493 10.493 0 0 1 47 16.892Z" stroke="url(#e)" transform="translate(.841 .316)"/><path d="m90.303 24.993 29.703 17.15a11 11 0 0 1 5.5 9.526v34.298a11 11 0 0 1-5.5 9.526l-29.703 17.15a11 11 0 0 1-11 0L49.6 95.492a11 11 0 0 1-5.5-9.526V51.669a11 11 0 0 1 5.5-9.527l29.703-17.149a11 11 0 0 1 11 0Z" fill="url(#f)" transform="translate(.841 .316)"/><path d="M84.803 24.02c1.813 0 3.626.468 5.25 1.406l29.703 17.15a10.5 10.5 0 0 1 5.25 9.093v34.298a10.493 10.493 0 0 1-5.25 9.093l-29.703 17.15a10.493 10.493 0 0 1-10.5 0L49.85 95.06a10.493 10.493 0 0 1-5.25-9.093V51.669a10.493 10.493 0 0 1 5.25-9.094l29.703-17.149a10.493 10.493 0 0 1 5.25-1.407Z" stroke="url(#g)" transform="translate(.841 .316)"/></g></svg>
