<svg width="67" height="67" viewBox="0 0 67 67" xmlns="http://www.w3.org/2000/svg" xmlns:xlink="http://www.w3.org/1999/xlink"><defs><linearGradient x1="62.746%" y1="40.184%" x2="100%" y2="8.194%" id="d"><stop stop-color="#1E1E1E" offset="0%"/><stop stop-color="#525252" offset="100%"/></linearGradient><linearGradient x1="50%" y1="5.249%" x2="50%" y2="106.922%" id="f"><stop stop-color="#CECECE" offset="0%"/><stop stop-color="#525252" offset="100%"/></linearGradient><linearGradient x1="50%" y1="155.614%" x2="50%" y2="0%" id="e"><stop stop-color="#FFF" offset="0%"/><stop stop-color="#D8D8D8" offset="100%"/></linearGradient><linearGradient x1="50%" y1="0%" x2="50%" y2="100%" id="h"><stop stop-color="#FFF" offset="0%"/><stop stop-color="#CACACA" offset="100%"/></linearGradient><linearGradient x1="50%" y1="50%" x2="50%" y2="138.835%" id="g"><stop stop-color="#FFF" offset="0%"/><stop stop-color="#D8D8D8" offset="100%"/></linearGradient><radialGradient cx="50%" cy="50%" fx="50%" fy="50%" r="100%" id="b"><stop stop-color="#FFF" offset="0%"/><stop offset="100%"/></radialGradient><rect id="a" x="0" y="0" width="66" height="66" rx="14"/></defs><g transform="translate(.141 .932)" fill="none" fill-rule="evenodd"><rect width="66" height="66" rx="14"/><mask id="c" fill="#fff"><use xlink:href="#a"/></mask><use fill="url(#b)" opacity=".454" xlink:href="#a"/><g opacity=".097" mask="url(#c)" stroke="url(#d)"><g transform="matrix(-1 0 0 1 82 -17)"><circle cx="49" cy="49" r="48.5"/><circle cx="49" cy="49.678" r="43.731"/><circle cx="49" cy="49.668" r="38.282"/><circle cx="49" cy="49.678" r="32.832"/><circle cx="49" cy="49.668" r="27.383"/><circle cx="49" cy="49.659" r="21.934"/><circle cx="49" cy="49.671" r="16.53"/><circle cx="49" cy="49.659" r="11.125"/><circle cx="49" cy="49.661" r="5.721"/></g></g><rect stroke="#A5A5A5" stroke-width="2" x="1" y="1" width="64" height="64" rx="10"/><circle stroke="url(#e)" fill="url(#f)" cx="19.693" cy="33" r="11.878"/><circle stroke="url(#g)" fill="url(#h)" cx="46.307" cy="33" r="11.878"/></g></svg>
