<svg width="124" height="108" viewBox="0 0 124 108" xmlns="http://www.w3.org/2000/svg"><defs><linearGradient x1="39.505%" y1="62.87%" x2="50%" y2="27.543%" id="a"><stop stop-color="#2A2A2A" offset="0%"/><stop stop-color="#3641BA" offset="100%"/></linearGradient><linearGradient x1="50%" y1="33.148%" x2="50%" y2="-.965%" id="b"><stop stop-color="#2A2A2A" offset="0%"/><stop stop-color="#979797" offset="100%"/></linearGradient><linearGradient x1="39.531%" y1="59.597%" x2="50%" y2="27.651%" id="c"><stop stop-color="#2A2A2A" offset="0%"/><stop stop-color="#3641BA" offset="100%"/></linearGradient><linearGradient x1="37.192%" y1="54.867%" x2="50%" y2="27.593%" id="d"><stop stop-color="#2A2A2A" offset="0%"/><stop stop-color="#3641BA" offset="100%"/></linearGradient><linearGradient x1="50%" y1="38.172%" x2="50%" y2=".854%" id="e"><stop stop-color="#2A2A2A" offset="0%"/><stop stop-color="#979797" offset="100%"/></linearGradient><linearGradient x1="50%" y1="41.812%" x2="50%" y2="1.093%" id="f"><stop stop-color="#2A2A2A" offset="0%"/><stop stop-color="#979797" offset="100%"/></linearGradient></defs><g fill="none" fill-rule="evenodd"><path d="m62.923 2.276 57.408 80.309a2 2 0 0 1-1.627 3.163H3.888a2 2 0 0 1-1.627-3.163L59.67 2.276a2 2 0 0 1 3.254 0Z" fill="url(#a)" transform="translate(.786 .895)"/><path d="M61.05 1.96c.379-.064.782.018 1.119.259l57.756 80.656c.24.337.322.74.26 1.119a1.495 1.495 0 0 1-1.48 1.254H3.887a1.49 1.49 0 0 1-1.06-.44 1.495 1.495 0 0 1-.16-1.933L60.076 2.567c.24-.337.596-.545.974-.608Z" stroke="url(#b)" transform="translate(.786 .895)"/><path d="m62.923 13.692 55.244 77.281a2 2 0 0 1-1.627 3.163H6.052a2 2 0 0 1-1.627-3.163L59.67 13.692a2 2 0 0 1 3.254 0Z" fill="url(#c)" transform="translate(.786 .895)"/><path d="m62.923 25.14 55.244 77.281a2 2 0 0 1-1.627 3.164H6.052a2 2 0 0 1-1.627-3.164l55.244-77.28a2 2 0 0 1 3.254 0Z" fill="url(#d)" transform="translate(.786 .895)"/><path d="M61.05 13.375c.379-.063.782.019 1.119.26l56.326 78.656a1.495 1.495 0 0 1-1.22 2.372H5.318a1.495 1.495 0 0 1-1.22-2.372l55.978-78.308c.24-.337.596-.545.974-.608Z" stroke="url(#e)" transform="translate(.786 .895)"/><path d="M61.05 24.824c.379-.063.782.018 1.119.26l56.326 78.655c.24.337.322.74.26 1.119a1.495 1.495 0 0 1-1.48 1.254H5.318a1.49 1.49 0 0 1-1.06-.44 1.495 1.495 0 0 1-.16-1.933l55.978-78.308c.24-.337.596-.544.974-.607Z" stroke="url(#f)" transform="translate(.786 .895)"/></g></svg>
