<svg width="67" height="67" viewBox="0 0 67 67" xmlns="http://www.w3.org/2000/svg" xmlns:xlink="http://www.w3.org/1999/xlink"><defs><linearGradient x1="43.081%" y1="45.617%" x2="56.944%" y2="53.84%" id="b"><stop stop-color="#1E1E1E" offset="0%"/><stop stop-color="#D8D8D8" offset="34.517%"/><stop stop-color="#1E1E1E" offset="100%"/><stop stop-color="#1E1E1E" offset="100%"/></linearGradient><linearGradient x1="50%" y1="78.1%" x2="50%" y2="2.394%" id="e"><stop stop-color="#2A2A2A" offset="0%"/><stop stop-color="#979797" offset="100%"/></linearGradient><linearGradient x1="95.866%" y1="50%" x2="0%" y2="50%" id="g"><stop stop-color="#2A2A2A" offset="0%"/><stop stop-color="#3641BA" offset="100%"/><stop stop-color="#3641BA" offset="100%"/></linearGradient><linearGradient x1="61.584%" y1="58.187%" x2="9.065%" y2="24.178%" id="f"><stop stop-color="#2A2A2A" offset="0%"/><stop stop-color="#979797" offset="100%"/></linearGradient><radialGradient cx="50%" cy="50%" fx="50%" fy="50%" r="50%" id="d"><stop stop-color="#FFF" offset="0%"/><stop stop-color="#222324" offset="100%"/></radialGradient><rect id="a" x="0" y="0" width="66" height="66" rx="33"/></defs><g transform="translate(.196 .275)" fill="none" fill-rule="evenodd"><mask id="c" fill="#fff"><use xlink:href="#a"/></mask><use fill="#222324" xlink:href="#a"/><path d="M39.112.036v65.928m60.896-43.49H-33.994M99.995 10.297H-34.008M100.008 34.65H-33.994m134.002 12.177H-33.994m134.002 12.177H-33.994M87.821.035v65.93M26.935.034v65.93M75.644.034v65.93M14.758.034v65.93M-9.596.034v65.93M63.466.034v65.93M2.581.034v65.93M-21.773.034v65.93M51.29.034v65.93" stroke="url(#b)" opacity=".04" stroke-linecap="square" mask="url(#c)"/><circle fill="url(#d)" opacity=".08" cx="33" cy="32.165" r="29.998"/><rect stroke="url(#e)" stroke-width="2" x="1" y="1" width="64" height="64" rx="32"/><path d="M33 18.583c-.77 0-1.602.062-2.403.216-7.054 1.17-12.199 7.64-11.706 14.848.247 3.881 2.064 7.27 4.744 9.642-.708 1.201-1.232 1.91-2.341 2.896-.493.43-.185 1.232.462 1.232h.216c1.848 0 4.282-.462 5.976-1.479 1.602.585 3.296.955 5.052.955.8 0 1.663-.062 2.495-.216 7.054-1.324 12.106-7.793 11.613-14.94A14.152 14.152 0 0 0 33 18.583Z" stroke="url(#f)" fill="url(#g)" fill-rule="nonzero"/></g></svg>
