<svg width="67" height="67" viewBox="0 0 67 67" xmlns="http://www.w3.org/2000/svg" xmlns:xlink="http://www.w3.org/1999/xlink"><defs><linearGradient x1="43.081%" y1="45.617%" x2="56.944%" y2="53.84%" id="b"><stop stop-color="#1E1E1E" offset="0%"/><stop stop-color="#D8D8D8" offset="34.517%"/><stop stop-color="#1E1E1E" offset="100%"/><stop stop-color="#1E1E1E" offset="100%"/></linearGradient><linearGradient x1="50%" y1="64.504%" x2="50%" y2="0%" id="f"><stop stop-color="#2A2A2A" offset="0%"/><stop stop-color="#3641BA" offset="100%"/></linearGradient><linearGradient x1="62.746%" y1="40.184%" x2="100%" y2="8.194%" id="h"><stop stop-color="#1E1E1E" offset="0%"/><stop stop-color="#525252" offset="100%"/></linearGradient><linearGradient x1="52.19%" y1="68.347%" x2="52.19%" y2="0%" id="i"><stop stop-color="#2A2A2A" offset="0%"/><stop stop-color="#979797" offset="100%"/></linearGradient><radialGradient cx="50%" cy="50%" fx="50%" fy="50%" r="50%" id="d"><stop stop-color="#FFF" offset="0%"/><stop stop-color="#222324" offset="100%"/></radialGradient><circle id="e" cx="18.5" cy="18.5" r="18.5"/><rect id="a" x="0" y="0" width="66" height="66" rx="10"/></defs><g transform="translate(.141 .628)" fill="none" fill-rule="evenodd"><mask id="c" fill="#fff"><use xlink:href="#a"/></mask><use fill="#222324" xlink:href="#a"/><path d="M39.112.036v65.928m60.896-43.49H-33.994M99.995 10.297H-34.008M100.008 34.65H-33.994m134.002 12.177H-33.994m134.002 12.177H-33.994M87.821.035v65.93M26.935.034v65.93M75.644.034v65.93M14.758.034v65.93M-9.596.034v65.93M63.466.034v65.93M2.581.034v65.93M-21.773.034v65.93M51.29.034v65.93" stroke="url(#b)" opacity=".04" stroke-linecap="square" mask="url(#c)"/><circle fill="url(#d)" opacity=".08" cx="33" cy="32.165" r="29.998"/><g transform="translate(14.5 13.665)"><mask id="g" fill="#fff"><use xlink:href="#e"/></mask><use fill="url(#f)" xlink:href="#e"/><g opacity=".153" mask="url(#g)" stroke="url(#h)"><g transform="matrix(-1 0 0 1 47.587 7.076)"><circle cx="29.087" cy="29.087" r="28.587"/><circle cx="29.087" cy="29.489" r="25.756"/><circle cx="29.087" cy="29.484" r="22.521"/><circle cx="29.087" cy="29.489" r="19.287"/><circle cx="29.087" cy="29.484" r="16.052"/><circle cx="29.087" cy="29.478" r="12.817"/><circle cx="29.087" cy="29.485" r="9.609"/><circle cx="29.087" cy="29.478" r="6.401"/><circle cx="29.087" cy="29.48" r="3.193"/></g></g></g><circle stroke="url(#i)" cx="33" cy="32.165" r="18"/><rect stroke="#393939" stroke-width="2" x="1" y="1" width="64" height="64" rx="10"/></g></svg>
