<svg width="67" height="67" viewBox="0 0 67 67" xmlns="http://www.w3.org/2000/svg" xmlns:xlink="http://www.w3.org/1999/xlink"><defs><linearGradient x1="33.695%" y1="50%" x2="65.741%" y2="50%" id="b"><stop stop-color="#1E1E1E" offset="0%"/><stop stop-color="#D8D8D8" offset="51%"/><stop stop-color="#1E1E1E" offset="100%"/><stop stop-color="#1E1E1E" offset="100%"/></linearGradient><linearGradient x1="50%" y1="50%" x2="2.862%" y2="50%" id="f"><stop stop-color="#2A2A2A" offset="0%"/><stop stop-color="#979797" offset="100%"/></linearGradient><linearGradient x1="100%" y1="72.686%" x2="100%" y2="8.194%" id="h"><stop stop-color="#222324" offset="0%"/><stop stop-color="#3641BA" offset="100%"/></linearGradient><radialGradient cx="50%" cy="50%" fx="50%" fy="50%" r="50%" id="d"><stop stop-color="#FFF" offset="0%"/><stop stop-color="#222324" offset="100%"/></radialGradient><rect id="a" x="0" y="0" width="66" height="66" rx="10"/><path d="M26.37 25.378a1 1 0 0 1-.106.447L14.08 50.195a1 1 0 0 1-1.788 0L.106 25.824A.996.996 0 0 1 0 25.386v-.016a1 1 0 0 1 .106-.447L12.29.553a1 1 0 0 1 1.788 0l12.185 24.37c.07.14.105.29.106.438v.017Z" id="e"/></defs><g fill="none" fill-rule="evenodd"><g transform="translate(.141 .75)"><mask id="c" fill="#fff"><use xlink:href="#a"/></mask><use fill="#222324" xlink:href="#a"/><path d="M39.112.036v65.928m60.896-43.49H-33.994M99.995 10.297H-34.008M100.008 34.65H-33.994m134.002 12.177H-33.994m134.002 12.177H-33.994M87.821.035v65.93M26.935.034v65.93M75.644.034v65.93M14.758.034v65.93M-9.596.034v65.93M63.466.034v65.93M2.581.034v65.93M-21.773.034v65.93M51.29.034v65.93" stroke="url(#b)" opacity=".04" stroke-linecap="square" mask="url(#c)"/><circle fill="url(#d)" opacity=".08" cx="33" cy="32.165" r="29.998"/><rect stroke="#393939" stroke-width="2" x="1" y="1" width="64" height="64" rx="10"/></g><g transform="translate(19.956 8.376)"><mask id="g" fill="#fff"><use xlink:href="#e"/></mask><path stroke="url(#f)" d="M13.027.526c.478.075.557.154.605.25l12.075 24.15-12.075 25.045a.498.498 0 0 1-.894 0L.663 25.82 12.738.777a.498.498 0 0 1 .289-.251Z"/><g opacity=".101" mask="url(#g)" stroke="url(#h)"><g transform="translate(-13.565 -1.376)"><circle cx="26.75" cy="26.75" r="26.25"/><circle cx="26.75" cy="27.12" r="23.647"/><circle cx="26.75" cy="27.115" r="20.672"/><circle cx="26.75" cy="27.12" r="17.697"/><circle cx="26.75" cy="27.115" r="14.722"/><circle cx="26.75" cy="27.11" r="11.747"/><circle cx="26.75" cy="27.116" r="8.797"/><circle cx="26.75" cy="27.11" r="5.847"/><circle cx="26.75" cy="27.111" r="2.896"/></g></g></g></g></svg>
