<svg width="2532" height="912" viewBox="0 0 2532 912" xmlns="http://www.w3.org/2000/svg" xmlns:xlink="http://www.w3.org/1999/xlink"><defs><radialGradient cx="50.566%" cy="50%" fx="50.566%" fy="50%" r="50.003%" id="d"><stop stop-color="#FFF" offset="0%"/><stop stop-color="#1E1E1E" offset="100%"/></radialGradient><radialGradient cx="50%" cy="0%" fx="50%" fy="0%" r="20735.579%" gradientTransform="matrix(-.00008 .98482 -.33066 -134.60365 .5 -.492)" id="f"><stop stop-color="#5F5F5F" offset="0%"/><stop stop-color="#1E1E1E" offset="100%"/></radialGradient><radialGradient cx="50%" cy="0%" fx="50%" fy="0%" r="20735.579%" gradientTransform="matrix(-.00008 .98482 -.33066 -134.60365 .5 -.492)" id="g"><stop stop-color="#5F5F5F" offset="0%"/><stop stop-color="#3C3C3C" offset="54.001%"/><stop stop-color="#1E1E1E" offset="100%"/></radialGradient><linearGradient x1="44.873%" y1="55.027%" x2="0%" y2="100%" id="c"><stop stop-color="#1E1E1E" offset="0%"/><stop stop-color="#3641BA" offset="100%"/></linearGradient><linearGradient x1="30.279%" y1="40.632%" x2="70.993%" y2="57.177%" id="e"><stop stop-color="#1E1E1E" offset="0%"/><stop stop-color="#D8D8D8" offset="52.777%"/><stop stop-color="#1E1E1E" offset="100%"/></linearGradient><path id="a" d="M0 0h2532v911H0z"/></defs><g transform="translate(0 .497)" fill="none" fill-rule="evenodd"><mask id="b" fill="#fff"><use xlink:href="#a"/></mask><g/><g mask="url(#b)" stroke="url(#c)" stroke-width="2"><g transform="rotate(180 559.5 553.975)"><rect transform="rotate(180 335 335)" x="1" y="1" width="668" height="668" rx="30"/><rect transform="rotate(180 335 334.696)" x="36.924" y="36.62" width="596.153" height="596.153" rx="30"/><rect transform="rotate(180 335 334.558)" x="72.554" y="72.113" width="524.892" height="524.892" rx="30"/><rect transform="rotate(180 335 334.558)" x="108.322" y="107.881" width="453.355" height="453.355" rx="30"/><rect transform="rotate(180 335 334.558)" x="144.09" y="143.649" width="381.819" height="381.819" rx="30"/><rect transform="rotate(180 335 334.236)" x="179.858" y="179.095" width="310.283" height="310.283" rx="30"/><rect transform="rotate(180 335 334.236)" x="215.627" y="214.863" width="238.747" height="238.747" rx="30"/><rect transform="rotate(180 335 334.558)" x="251.395" y="250.953" width="167.211" height="167.211" rx="30"/><rect transform="rotate(180 335 334.236)" x="287.163" y="286.399" width="95.674" height="95.674" rx="30"/></g></g><g mask="url(#b)" stroke="url(#c)" stroke-width="2"><g transform="matrix(1 0 0 -1 1401.918 1107.951)"><rect transform="rotate(180 335 335)" x="1" y="1" width="668" height="668" rx="30"/><rect transform="rotate(180 335 334.696)" x="36.924" y="36.62" width="596.153" height="596.153" rx="30"/><rect transform="rotate(180 335 334.558)" x="72.554" y="72.113" width="524.892" height="524.892" rx="30"/><rect transform="rotate(180 335 334.558)" x="108.322" y="107.881" width="453.355" height="453.355" rx="30"/><rect transform="rotate(180 335 334.558)" x="144.09" y="143.649" width="381.819" height="381.819" rx="30"/><rect transform="rotate(180 335 334.236)" x="179.858" y="179.095" width="310.283" height="310.283" rx="30"/><rect transform="rotate(180 335 334.236)" x="215.627" y="214.863" width="238.747" height="238.747" rx="30"/><rect transform="rotate(180 335 334.558)" x="251.395" y="250.953" width="167.211" height="167.211" rx="30"/><rect transform="rotate(180 335 334.236)" x="287.163" y="286.399" width="95.674" height="95.674" rx="30"/></g></g><circle fill="url(#d)" opacity=".031" mask="url(#b)" cx="1266" r="1741"/><path d="M1413.917-187.071v1713.142m1583.265-1130.09H-484.896m3481.74-316.419H-485.182m3482.364 632.836H-484.896m3482.078 316.418H-484.896m3482.078 316.418H-484.896M2679.588-187.071v1713.142M1097.498-187.071v1713.142M2363.17-187.071v1713.142M781.081-187.071v1713.142M148.245-187.071v1713.142M2046.752-187.071v1713.142M464.663-187.071v1713.142M-168.172-187.071v1713.142M1730.334-187.071v1713.142" stroke="url(#e)" opacity=".04" stroke-linecap="square" mask="url(#b)"/><path stroke="url(#f)" stroke-linecap="square" mask="url(#b)" d="M2409 0H103"/><path stroke="url(#g)" stroke-linecap="square" mask="url(#b)" d="M2409 911H103"/></g></svg>
