<svg width="197" height="196" viewBox="0 0 197 196" fill="none" xmlns="http://www.w3.org/2000/svg">
<path d="M199.434 186.336C199.044 186.727 199.044 187.36 199.434 187.751C199.825 188.141 200.458 188.141 200.849 187.751L199.434 186.336ZM297.061 91.5403C297.451 91.1497 297.451 90.5166 297.061 90.1261C296.67 89.7355 296.037 89.7355 295.647 90.1261L297.061 91.5403ZM171.819 192.673C171.428 193.063 171.428 193.697 171.819 194.087C172.209 194.478 172.842 194.478 173.233 194.087L171.819 192.673ZM303.398 63.9244C303.789 63.5339 303.789 62.9007 303.398 62.5102C303.008 62.1197 302.374 62.1196 301.984 62.5102L303.398 63.9244ZM149.242 193.976C148.852 194.366 148.852 194.999 149.242 195.39C149.633 195.78 150.266 195.78 150.657 195.39L149.242 193.976ZM304.708 41.3362C305.099 40.9457 305.099 40.3125 304.708 39.922C304.318 39.5315 303.685 39.5315 303.294 39.922L304.708 41.3362ZM129.573 192.365C129.183 192.755 129.183 193.388 129.573 193.779C129.964 194.169 130.597 194.169 130.988 193.779L129.573 192.365ZM303.099 21.6665C303.489 21.276 303.489 20.6428 303.099 20.2523C302.708 19.8618 302.075 19.8618 301.684 20.2523L303.099 21.6665ZM111.976 188.684C111.586 189.074 111.586 189.707 111.976 190.098C112.367 190.488 113 190.488 113.391 190.098L111.976 188.684ZM299.417 4.07018C299.808 3.67966 299.808 3.04649 299.417 2.65597C299.027 2.26544 298.394 2.26544 298.003 2.65597L299.417 4.07018ZM95.9997 183.379C95.6092 183.769 95.6092 184.403 95.9997 184.793C96.3902 185.184 97.0234 185.184 97.4139 184.793L95.9997 183.379ZM294.115 -11.9065C294.506 -12.297 294.506 -12.9301 294.115 -13.3207C293.725 -13.7112 293.092 -13.7112 292.701 -13.3207L294.115 -11.9065ZM81.4055 176.696C81.015 177.087 81.015 177.72 81.4055 178.111C81.796 178.501 82.4292 178.501 82.8197 178.111L81.4055 176.696ZM287.432 -26.5006C287.822 -26.8912 287.822 -27.5243 287.432 -27.9149C287.041 -28.3054 286.408 -28.3054 286.017 -27.9149L287.432 -26.5006ZM68.0503 168.774C67.6598 169.165 67.6598 169.798 68.0503 170.188C68.4408 170.579 69.074 170.579 69.4645 170.188L68.0503 168.774ZM279.508 -39.8565C279.899 -40.247 279.899 -40.8802 279.508 -41.2707C279.117 -41.6612 278.484 -41.6612 278.094 -41.2707L279.508 -39.8565ZM55.8146 159.732C55.424 160.122 55.424 160.755 55.8146 161.146C56.2051 161.536 56.8383 161.536 57.2288 161.146L55.8146 159.732ZM270.466 -52.0916C270.856 -52.4821 270.856 -53.1153 270.466 -53.5058C270.075 -53.8963 269.442 -53.8963 269.051 -53.5058L270.466 -52.0916ZM44.6511 149.613C44.2605 150.004 44.2605 150.637 44.651 151.028C45.0416 151.418 45.6747 151.418 46.0652 151.028L44.6511 149.613ZM260.351 -63.2551C260.741 -63.6456 260.741 -64.2788 260.351 -64.6693C259.96 -65.0598 259.327 -65.0598 258.936 -64.6693L260.351 -63.2551ZM34.5359 138.451C34.1454 138.841 34.1454 139.474 34.5359 139.865C34.9264 140.255 35.5595 140.255 35.9501 139.865L34.5359 138.451ZM249.187 -73.3703C249.578 -73.7608 249.578 -74.394 249.187 -74.7845C248.796 -75.175 248.163 -75.175 247.773 -74.7845L249.187 -73.3703ZM25.4929 126.218C25.1024 126.608 25.1024 127.242 25.4929 127.632C25.8835 128.023 26.5166 128.023 26.9071 127.632L25.4929 126.218ZM236.951 -82.4126C237.342 -82.8031 237.342 -83.4363 236.951 -83.8268C236.561 -84.2173 235.928 -84.2173 235.537 -83.8268L236.951 -82.4126ZM17.5707 112.859C17.1801 113.249 17.1801 113.883 17.5706 114.273C17.9612 114.664 18.5944 114.664 18.9849 114.273L17.5707 112.859ZM223.596 -90.3361C223.987 -90.7266 223.987 -91.3598 223.596 -91.7503C223.206 -92.1409 222.572 -92.1409 222.182 -91.7503L223.596 -90.3361ZM10.8981 98.2553C10.5076 98.6459 10.5076 99.279 10.8981 99.6695C11.2886 100.06 11.9218 100.06 12.3123 99.6695L10.8981 98.2553ZM208.99 -97.0081C209.38 -97.3986 209.38 -98.0317 208.99 -98.4223C208.599 -98.8128 207.966 -98.8128 207.576 -98.4223L208.99 -97.0081ZM5.58472 82.2906C5.19421 82.6812 5.19421 83.3143 5.58472 83.7048C5.97525 84.0954 6.60843 84.0954 6.99893 83.7048L5.58472 82.2906ZM193.025 -102.322C193.416 -102.713 193.416 -103.346 193.025 -103.736C192.635 -104.127 192.002 -104.127 191.611 -103.736L193.025 -102.322ZM1.91495 64.6817C1.52441 65.0723 1.52441 65.7054 1.91495 66.0959C2.30545 66.4865 2.93863 66.4865 3.32913 66.0959L1.91495 64.6817ZM175.417 -105.992C175.807 -106.382 175.807 -107.016 175.417 -107.406C175.026 -107.797 174.393 -107.797 174.003 -107.406L175.417 -105.992ZM0.293976 45.0246C-0.0965271 45.4151 -0.0965271 46.0483 0.294006 46.4388C0.684509 46.8293 1.31769 46.8293 1.70822 46.4388L0.293976 45.0246ZM155.759 -107.613C156.15 -108.003 156.15 -108.636 155.759 -109.027C155.369 -109.418 154.735 -109.418 154.345 -109.027L155.759 -107.613ZM1.6041 22.4364C1.21356 22.827 1.21356 23.4601 1.6041 23.8506C1.99463 24.2412 2.62778 24.2412 3.01831 23.8506L1.6041 22.4364ZM133.159 -106.291C133.55 -106.681 133.55 -107.314 133.159 -107.705C132.769 -108.095 132.135 -108.095 131.745 -107.705L133.159 -106.291ZM7.92868 -5.16749C7.53815 -4.77696 7.53815 -4.1438 7.92868 -3.75327C8.31921 -3.36275 8.95236 -3.36275 9.3429 -3.75327L7.92868 -5.16749ZM105.555 -99.9655C105.946 -100.356 105.946 -100.989 105.555 -101.38C105.165 -101.77 104.531 -101.77 104.141 -101.38L105.555 -99.9655ZM32.6727 -51.1895C32.2821 -50.799 32.2821 -50.1659 32.6727 -49.7753C33.0632 -49.3848 33.6964 -49.3848 34.0869 -49.7753L32.6727 -51.1895ZM59.5337 -75.2222C59.9242 -75.6127 59.9242 -76.2459 59.5337 -76.6364C59.1432 -77.0269 58.51 -77.0269 58.1195 -76.6364L59.5337 -75.2222ZM243.605 163.678C243.214 164.069 243.214 164.702 243.605 165.092C243.995 165.483 244.628 165.483 245.019 165.092L243.605 163.678ZM270.466 139.645C270.856 139.255 270.856 138.622 270.466 138.231C270.075 137.841 269.442 137.841 269.051 138.231L270.466 139.645ZM200.849 187.751L297.061 91.5403L295.647 90.1261L199.434 186.336L200.849 187.751ZM173.233 194.087L303.398 63.9244L301.984 62.5102L171.819 192.673L173.233 194.087ZM150.657 195.39L304.708 41.3362L303.294 39.922L149.242 193.976L150.657 195.39ZM130.988 193.779L303.099 21.6665L301.684 20.2523L129.573 192.365L130.988 193.779ZM113.391 190.098L299.417 4.07018L298.003 2.65597L111.976 188.684L113.391 190.098ZM97.4139 184.793L294.115 -11.9065L292.701 -13.3207L95.9997 183.379L97.4139 184.793ZM82.8197 178.111L287.432 -26.5006L286.017 -27.9149L81.4055 176.696L82.8197 178.111ZM69.4645 170.188L279.508 -39.8565L278.094 -41.2707L68.0503 168.774L69.4645 170.188ZM57.2288 161.146L270.466 -52.0916L269.051 -53.5058L55.8146 159.732L57.2288 161.146ZM46.0652 151.028L260.351 -63.2551L258.936 -64.6693L44.6511 149.613L46.0652 151.028ZM35.9501 139.865L249.187 -73.3703L247.773 -74.7845L34.5359 138.451L35.9501 139.865ZM26.9071 127.632L236.951 -82.4126L235.537 -83.8268L25.4929 126.218L26.9071 127.632ZM18.9849 114.273L223.596 -90.3361L222.182 -91.7503L17.5707 112.859L18.9849 114.273ZM12.3123 99.6695L208.99 -97.0081L207.576 -98.4223L10.8981 98.2553L12.3123 99.6695ZM6.99893 83.7048L193.025 -102.322L191.611 -103.736L5.58472 82.2906L6.99893 83.7048ZM3.32913 66.0959L175.417 -105.992L174.003 -107.406L1.91495 64.6817L3.32913 66.0959ZM1.70822 46.4388L155.759 -107.613L154.345 -109.027L0.293976 45.0246L1.70822 46.4388ZM3.01831 23.8506L133.159 -106.291L131.745 -107.705L1.6041 22.4364L3.01831 23.8506ZM9.3429 -3.75327L105.555 -99.9655L104.141 -101.38L7.92868 -5.16749L9.3429 -3.75327ZM34.0869 -49.7753L59.5337 -75.2222L58.1195 -76.6364L32.6727 -51.1895L34.0869 -49.7753ZM245.019 165.092L270.466 139.645L269.051 138.231L243.605 163.678L245.019 165.092Z" fill="white"/>
</svg>
